<?xml version="1.0" encoding="utf-8"?>
<!-- Generator: Adobe Illustrator 18.0.0, SVG Export Plug-In . SVG Version: 6.00 Build 0)  -->
<!DOCTYPE svg PUBLIC "-//W3C//DTD SVG 1.1//EN" "http://www.w3.org/Graphics/SVG/1.1/DTD/svg11.dtd">
<svg version="1.1" id="Layer_1" xmlns="http://www.w3.org/2000/svg" xmlns:xlink="http://www.w3.org/1999/xlink" x="0px" y="0px"
	 viewBox="0 0 64 64" enable-background="new 0 0 64 64" xml:space="preserve">
<g>
	<g>
		<g>
			<g>
				<path fill="#475F8E" d="M32,0c17.7,0,32,14.3,32,32S49.7,64,32,64S0,49.7,0,32S14.3,0,32,0z"/>
			</g>
		</g>
	</g>
	<g>
		<g>
			<g>
				<path fill="#C1C1C1" d="M48,53.1H16c-2.8,0-5-2.2-5-5v-25h42v25C53,50.9,50.7,53.1,48,53.1z"/>
			</g>
		</g>
	</g>
	<g>
		<g>
			<g>
				<path fill="#E5E5E5" d="M48,52.1H16c-2.8,0-5-2.2-5-5v-25h42v25C53,49.9,50.7,52.1,48,52.1z"/>
			</g>
		</g>
	</g>
	<g>
		<g>
			<g>
				<path fill="#FFFFFF" d="M48,51.1H16c-2.8,0-5-2.2-5-5v-25h42v25C53,48.9,50.7,51.1,48,51.1z"/>
			</g>
		</g>
	</g>
	<g>
		<g>
			<g>
				<path fill="#F44E57" d="M53,24.1H11v-8c0-2.7,2.2-5,5-5h32c2.8,0,5,2.2,5,5V24.1z"/>
			</g>
		</g>
	</g>
	<g>
		<g>
			<g>
				<rect x="15" y="29.1" fill="#E2E2E2" width="6.2" height="6"/>
			</g>
		</g>
	</g>
	<g>
		<g>
			<g>
				<rect x="24.3" y="29.1" fill="#E2E2E2" width="6.2" height="6"/>
			</g>
		</g>
	</g>
	<g>
		<g>
			<g>
				<rect x="33.5" y="29.1" fill="#E2E2E2" width="6.2" height="6"/>
			</g>
		</g>
	</g>
	<g>
		<g>
			<g>
				<rect x="42.8" y="29.1" fill="#E2E2E2" width="6.2" height="6"/>
			</g>
		</g>
	</g>
	<g>
		<g>
			<g>
				<rect x="15" y="39.1" fill="#E2E2E2" width="6.2" height="6"/>
			</g>
		</g>
	</g>
	<g>
		<g>
			<g>
				<rect x="24.3" y="39.1" fill="#E2E2E2" width="6.2" height="6"/>
			</g>
		</g>
	</g>
	<g>
		<g>
			<g>
				<rect x="33.5" y="39.1" fill="#E2E2E2" width="6.2" height="6"/>
			</g>
		</g>
	</g>
	<g>
		<g>
			<g>
				<rect x="42.8" y="39.1" fill="#F44E57" width="6.2" height="6"/>
			</g>
		</g>
	</g>
	<g>
		<g>
			<g>
				<circle fill="#CC404E" cx="21.5" cy="14.6" r="3.5"/>
			</g>
		</g>
	</g>
	<g>
		<g>
			<g>
				<circle fill="#CC404E" cx="42.5" cy="14.6" r="3.5"/>
			</g>
		</g>
	</g>
	<g>
		<g>
			<g>
				<path fill="#E2E2E2" d="M21.4,16.7L21.4,16.7c-1.3,0-2.4-1.1-2.4-2.4V9.6c0-1.3,1.1-2.4,2.4-2.4h0c1.3,0,2.4,1.1,2.4,2.4v4.7
					C23.9,15.6,22.8,16.7,21.4,16.7z"/>
			</g>
		</g>
	</g>
	<g>
		<g>
			<g>
				<path fill="#E2E2E2" d="M42.6,16.6L42.6,16.6c-1.3,0-2.4-1.1-2.4-2.4V9.4c0-1.3,1.1-2.4,2.4-2.4h0C43.9,7,45,8.1,45,9.4v4.7
					C45,15.5,43.9,16.6,42.6,16.6z"/>
			</g>
		</g>
	</g>
</g>
</svg>
